<svg width="45" height="45" viewBox="0 0 45 45" fill="none" xmlns="http://www.w3.org/2000/svg">
<path d="M0 0H45V45H0V0Z" fill="#222222"/>
<path d="M22.4652 26.2357C24.5435 26.2357 26.2283 24.5509 26.2283 22.4727C26.2283 20.3944 24.5435 18.7096 22.4652 18.7096C20.3869 18.7096 18.7021 20.3944 18.7021 22.4727C18.7021 24.5509 20.3869 26.2357 22.4652 26.2357Z" fill="#00D8FF"/>
<path d="M22.4652 14.8221C27.5166 14.8221 32.2098 15.5471 35.7478 16.7646C40.0108 18.232 42.6322 20.4568 42.6322 22.4714C42.6322 24.5705 39.8541 26.9346 35.2765 28.4505C31.8156 29.5971 27.2604 30.1965 22.4652 30.1965C17.5481 30.1965 12.8934 29.6344 9.39271 28.438C4.96434 26.9246 2.29688 24.5307 2.29688 22.4714C2.29688 20.4729 4.80019 18.2656 9.00347 16.8007C12.5551 15.5633 17.364 14.8221 22.4652 14.8221V14.8221Z" stroke="#00D8FF" stroke-width="1.80002" stroke-miterlimit="10"/>
<path d="M16.3673 19.0036C18.8905 14.6274 21.8639 10.9241 24.6868 8.46799C28.088 5.50828 31.3251 4.34927 33.0698 5.35533C34.8879 6.40366 35.5482 9.99137 34.5745 14.7157C33.8383 18.2873 32.0824 22.5316 29.686 26.6864C27.23 30.9456 24.417 34.6975 21.6326 37.1324C18.1096 40.2127 14.7022 41.327 12.9189 40.2985C11.1878 39.2999 10.5263 36.0293 11.3557 31.6557C12.0571 27.9573 13.818 23.422 16.3673 19.0036V19.0036Z" stroke="#00D8FF" stroke-width="1.80002" stroke-miterlimit="10"/>
<path d="M15.8121 26.3613C13.2814 21.9888 11.5578 17.5642 10.839 13.8919C9.97347 9.46729 10.5853 6.08352 12.3288 5.07498C14.1457 4.02292 17.5829 5.24287 21.1893 8.44507C23.9164 10.8663 26.7157 14.5075 29.1183 18.6586C31.5818 22.9141 33.4285 27.2243 34.1461 30.8518C35.0551 35.4431 34.3189 38.9512 32.5369 39.9821C30.8071 40.9832 27.6434 39.9237 24.2684 37.0199C21.4181 34.5664 18.3676 30.7759 15.8121 26.3613Z" stroke="#00D8FF" stroke-width="1.80002" stroke-miterlimit="10"/>
</svg>
