<svg width="45" height="45" viewBox="0 0 45 45" fill="none" xmlns="http://www.w3.org/2000/svg">
<path d="M0 22.5V5C0 2.23858 2.23858 0 5 0H40C42.7614 0 45 2.23858 45 5V40C45 42.7614 42.7614 45 40 45H0" fill="#007ACC"/>
<path d="M9.86627 22.5788V24.4125H15.7163V41.0625H19.8675V24.4125H25.7175V22.6125C25.7175 21.6 25.7175 20.7788 25.6725 20.7563C25.6725 20.7225 22.1063 20.7113 17.775 20.7113L9.90002 20.745V22.59L9.86627 22.5788V22.5788ZM36.1575 20.7C37.305 20.97 38.1825 21.4875 38.97 22.3088C39.3863 22.7588 40.005 23.5463 40.05 23.7488C40.05 23.8163 38.1038 25.1325 36.9225 25.8638C36.8775 25.8975 36.6975 25.7063 36.5175 25.4138C35.9325 24.5813 35.3363 24.2213 34.4025 24.1538C33.0525 24.0638 32.1525 24.7725 32.1525 25.9538C32.1525 26.3138 32.22 26.5163 32.355 26.8088C32.6588 27.4275 33.2213 27.7988 34.965 28.5638C38.1825 29.9475 39.5775 30.8588 40.4213 32.1638C41.3775 33.6263 41.5913 35.9213 40.95 37.6425C40.23 39.5213 38.475 40.7925 35.9663 41.2088C35.1788 41.3438 33.3788 41.3213 32.535 41.175C30.735 40.8375 29.0138 39.9375 27.9563 38.7788C27.54 38.3288 26.7413 37.125 26.7863 37.0463L27.2138 36.7763L28.9013 35.7975L30.1725 35.055L30.465 35.4488C30.8363 36.0338 31.6688 36.8213 32.1525 37.0913C33.615 37.845 35.5725 37.7438 36.54 36.8663C36.9563 36.4838 37.1363 36.0788 37.1363 35.5163C37.1363 34.9988 37.0575 34.7625 36.7988 34.3688C36.4388 33.8738 35.7188 33.4688 33.6938 32.5688C31.365 31.5788 30.375 30.9488 29.4525 29.9813C28.9238 29.3963 28.44 28.485 28.215 27.7313C28.0463 27.0788 27.99 25.4813 28.1475 24.84C28.6313 22.59 30.33 21.015 32.76 20.565C33.5475 20.4075 35.4038 20.475 36.18 20.6775L36.1575 20.7V20.7Z" fill="white"/>
</svg>
